<svg width="164" height="164" viewBox="0 0 164 164" fill="none" xmlns="http://www.w3.org/2000/svg">
<g filter="url(#filter0_f_393_1316)">
<g filter="url(#filter1_f_393_1316)">
<path d="M89 24C80.5 24 74 30.5 74 39V69C74 77.5 80.5 84 89 84H119L139 104V84C147.5 84 154 77.5 154 69V39C154 30.5 147.5 24 139 24H89ZM109.94 39H118.53L126.97 69H119.47L117.435 61.5H109.935L108.065 69H101.5L109.94 39ZM114 44C113.5 46 112.94 48.44 112.435 49.94L111.035 56.5H116.97L115.56 49.935C114.565 48.44 114 46 114 44ZM39 74C30.5 74 24 80.5 24 89C24 97.5 24 119 24 119C24 127.5 30.5 134 39 134V154L59 134H89C97.5 134 104 127.5 104 119V89H89C79.5 89 71.97 82.5 69.47 74H39ZM61.97 88.53C70.47 88.53 74.47 95.53 74.47 103.53C74.47 110.53 72.065 114.97 68.065 116.97C70.065 117.97 72.435 118.5 74.935 119L73.065 124C69.565 123 65.935 121.44 62.435 119.935C61.935 119.435 61.06 119.47 60.56 119.47C54.56 118.97 49 114 49 104C49 95.5 53.97 88.53 61.97 88.53ZM61.97 94C57.97 94 56.03 98.5 56.03 104C56.03 110 57.97 114 61.97 114C65.97 114 68.06 109.5 68.06 104C68.06 98.5 65.97 94 61.97 94Z" fill="white" fill-opacity="0.1"/>
<path d="M119.707 83.2929L119.414 83H119H89C81.0523 83 75 76.9477 75 69V39C75 31.0523 81.0523 25 89 25H139C146.948 25 153 31.0523 153 39V69C153 76.9477 146.948 83 139 83H138V84V101.586L119.707 83.2929ZM109.94 38H109.183L108.977 38.7292L100.537 68.7292L100.18 70H101.5H108.065H108.846L109.035 69.2419L110.716 62.5H116.67L118.505 69.2619L118.705 70H119.47H126.97H128.29L127.933 68.7292L119.493 38.7292L119.287 38H118.53H109.94ZM40 134V133H39C31.0523 133 25 126.948 25 119H24C25 119 25 119 25 119V118.999V118.998V118.996V118.994V118.991V118.988V118.984V118.98V118.976V118.971V118.965V118.959V118.952V118.946V118.938V118.93V118.922V118.913V118.904V118.894V118.884V118.873V118.862V118.85V118.838V118.826V118.813V118.799V118.786V118.771V118.756V118.741V118.726V118.71V118.693V118.676V118.659V118.641V118.623V118.604V118.585V118.565V118.546V118.525V118.504V118.483V118.462V118.439V118.417V118.394V118.371V118.347V118.323V118.298V118.274V118.248V118.222V118.196V118.17V118.143V118.115V118.088V118.06V118.031V118.002V117.973V117.943V117.913V117.883V117.852V117.82V117.789V117.757V117.724V117.692V117.659V117.625V117.591V117.557V117.522V117.487V117.452V117.416V117.38V117.344V117.307V117.27V117.232V117.194V117.156V117.118V117.079V117.039V117V116.96V116.92V116.879V116.838V116.797V116.755V116.713V116.671V116.628V116.585V116.542V116.498V116.454V116.41V116.365V116.32V116.275V116.229V116.183V116.137V116.09V116.044V115.996V115.949V115.901V115.853V115.805V115.756V115.707V115.658V115.608V115.558V115.508V115.457V115.407V115.355V115.304V115.252V115.2V115.148V115.096V115.043V114.99V114.936V114.883V114.829V114.775V114.72V114.665V114.61V114.555V114.5V114.444V114.388V114.331V114.275V114.218V114.161V114.104V114.046V113.988V113.93V113.872V113.813V113.754V113.695V113.636V113.576V113.516V113.456V113.396V113.335V113.274V113.213V113.152V113.091V113.029V112.967V112.905V112.842V112.78V112.717V112.654V112.591V112.527V112.463V112.4V112.335V112.271V112.207V112.142V112.077V112.012V111.946V111.881V111.815V111.749V111.683V111.617V111.55V111.483V111.416V111.349V111.282V111.214V111.147V111.079V111.011V110.943V110.874V110.806V110.737V110.668V110.599V110.53V110.46V110.391V110.321V110.251V110.181V110.111V110.04V109.97V109.899V109.828V109.757V109.686V109.615V109.543V109.472V109.4V109.328V109.256V109.184V109.112V109.039V108.966V108.894V108.821V108.748V108.675V108.602V108.528V108.455V108.381V108.307V108.233V108.159V108.085V108.011V107.937V107.862V107.788V107.713V107.638V107.563V107.488V107.413V107.338V107.263V107.188V107.112V107.036V106.961V106.885V106.809V106.733V106.657V106.581V106.505V106.429V106.352V106.276V106.199V106.123V106.046V105.969V105.892V105.815V105.738V105.661V105.584V105.507V105.43V105.352V105.275V105.198V105.12V105.043V104.965V104.887V104.81V104.732V104.654V104.576V104.499V104.421V104.343V104.265V104.187V104.109V104.03V103.952V103.874V103.796V103.718V103.639V103.561V103.483V103.404V103.326V103.248V103.169V103.091V103.012V102.934V102.856V102.777V102.699V102.62V102.542V102.463V102.385V102.306V102.228V102.149V102.071V101.992V101.914V101.835V101.757V101.678V101.6V101.521V101.443V101.364V101.286V101.208V101.129V101.051V100.973V100.894V100.816V100.738V100.66V100.582V100.503V100.425V100.347V100.269V100.191V100.113V100.036V99.9577V99.8799V99.8022V99.7245V99.6468V99.5693V99.4917V99.4142V99.3368V99.2594V99.1821V99.1049V99.0277V98.9506V98.8735V98.7965V98.7196V98.6428V98.566V98.4893V98.4127V98.3361V98.2597V98.1833V98.107V98.0308V97.9546V97.8786V97.8026V97.7267V97.6509V97.5752V97.4996V97.4241V97.3487V97.2734V97.1982V97.1231V97.0481V96.9732V96.8984V96.8238V96.7492V96.6747V96.6004V96.5261V96.452V96.378V96.3041V96.2304V96.1567V96.0832V96.0098V95.9365V95.8634V95.7904V95.7175V95.6448V95.5722V95.4997V95.4273V95.3551V95.2831V95.2112V95.1394V95.0677V94.9963V94.9249V94.8537V94.7827V94.7118V94.6411V94.5705V94.5001V94.4298V94.3597V94.2898V94.22V94.1504V94.081V94.0117V93.9426V93.8737V93.8049V93.7363V93.6679V93.5997V93.5316V93.4638V93.3961V93.3286V93.2612V93.1941V93.1272V93.0604V92.9938V92.9274V92.8613V92.7953V92.7295V92.6639V92.5985V92.5333V92.4683V92.4036V92.339V92.2746V92.2105V92.1465V92.0828V92.0193V91.956V91.8929V91.83V91.7674V91.705V91.6428V91.5808V91.5191V91.4575V91.3962V91.3352V91.2744V91.2138V91.1534V91.0933V91.0334V90.9738V90.9144V90.8552V90.7963V90.7377V90.6793V90.6211V90.5632V90.5055V90.4481V90.391V90.3341V90.2775V90.2211V90.165V90.1091V90.0535V89.9982V89.9432V89.8884V89.8339V89.7797V89.7257V89.672V89.6186V89.5655V89.5127V89.4601V89.4078V89.3558V89.3041V89.2527V89.2016V89.1507V89.1002V89.0499V89C25 81.0523 31.0523 75 39 75H68.7347C71.5513 83.5265 79.28 90 89 90H103V119C103 126.948 96.9477 133 89 133H59H58.5858L58.2929 133.293L40 151.586V134ZM70.2399 116.794C73.6136 114.246 75.47 109.755 75.47 103.53C75.47 99.3796 74.4345 95.3993 72.2075 92.43C69.9544 89.4258 66.5318 87.53 61.97 87.53C57.6503 87.53 54.1261 89.4233 51.7039 92.4531C49.2961 95.4648 48 99.5639 48 104C48 109.187 49.4444 113.171 51.7634 115.94C54.0829 118.709 57.2238 120.195 60.477 120.467L60.5184 120.47H60.56C60.5933 120.47 60.6261 120.47 60.6584 120.47C60.9033 120.469 61.1238 120.469 61.343 120.503C61.5913 120.542 61.6926 120.607 61.7279 120.642L61.8636 120.778L62.04 120.854L62.0547 120.86C65.5376 122.358 69.2226 123.942 72.7903 124.962L73.6782 125.215L74.0016 124.35L75.8716 119.35L76.2832 118.25L75.1311 118.019C73.354 117.664 71.71 117.305 70.2399 116.794ZM112.271 55.5L113.401 50.2039C113.546 49.7687 113.695 49.2614 113.845 48.7141C114.062 49.297 114.321 49.8431 114.621 50.323L115.732 55.5H112.271ZM57.03 104C57.03 101.346 57.5014 99.0292 58.3786 97.415C59.2371 95.8354 60.4279 95 61.97 95C63.5194 95 64.7498 95.8437 65.644 97.4288C66.5547 99.0431 67.06 101.357 67.06 104C67.06 106.643 66.5547 108.957 65.644 110.571C64.7498 112.156 63.5194 113 61.97 113C60.3806 113 59.2049 112.24 58.3714 110.76C57.5058 109.222 57.03 106.918 57.03 104Z" stroke="#A855F7" stroke-opacity="0.1" stroke-width="2"/>
</g>
</g>
<path d="M97.7071 61.2929L97.4142 61H97H67C59.0523 61 53 54.9477 53 47V17C53 9.05228 59.0523 3 67 3H117C124.948 3 131 9.05228 131 17V47C131 54.9477 124.948 61 117 61H116V62V79.5858L97.7071 61.2929ZM87.94 16H87.1825L86.9774 16.7292L78.5374 46.7292L78.1799 48H79.5H86.065H86.8463L87.0353 47.2419L88.7163 40.5H94.6702L96.5049 47.2619L96.7052 48H97.47H104.97H106.29L105.933 46.7292L97.4926 16.7292L97.2875 16H96.53H87.94ZM18 112V111H17C9.05228 111 3 104.948 3 97H2C3 97 3 96.9999 3 96.9998V96.999V96.9978V96.9961V96.9939V96.9912V96.988V96.9844V96.9803V96.9757V96.9706V96.965V96.959V96.9525V96.9455V96.9381V96.9302V96.9218V96.9129V96.9036V96.8939V96.8837V96.873V96.8618V96.8502V96.8382V96.8257V96.8128V96.7993V96.7855V96.7712V96.7565V96.7413V96.7257V96.7096V96.6931V96.6762V96.6588V96.641V96.6228V96.6041V96.585V96.5655V96.5456V96.5252V96.5044V96.4832V96.4615V96.4395V96.417V96.3941V96.3708V96.3471V96.323V96.2985V96.2735V96.2482V96.2225V96.1963V96.1698V96.1428V96.1155V96.0877V96.0596V96.031V96.0021V95.9728V95.9431V95.913V95.8825V95.8517V95.8204V95.7888V95.7568V95.7244V95.6917V95.6585V95.625V95.5912V95.5569V95.5223V95.4873V95.452V95.4162V95.3802V95.3437V95.3069V95.2698V95.2323V95.1944V95.1562V95.1176V95.0787V95.0394V94.9998V94.9598V94.9195V94.8789V94.8379V94.7966V94.7549V94.7129V94.6706V94.6279V94.5849V94.5416V94.4979V94.4539V94.4096V94.365V94.32V94.2747V94.2291V94.1832V94.137V94.0904V94.0435V93.9964V93.9489V93.9011V93.853V93.8046V93.7559V93.7069V93.6575V93.6079V93.558V93.5078V93.4573V93.4065V93.3554V93.3041V93.2524V93.2004V93.1482V93.0957V93.0429V92.9898V92.9364V92.8828V92.8289V92.7747V92.7202V92.6655V92.6105V92.5552V92.4997V92.4439V92.3878V92.3315V92.2749V92.218V92.1609V92.1035V92.0459V91.988V91.9299V91.8715V91.8129V91.754V91.6949V91.6356V91.576V91.5161V91.456V91.3957V91.3352V91.2744V91.2133V91.1521V91.0906V91.0289V90.9669V90.9048V90.8424V90.7798V90.7169V90.6539V90.5906V90.5271V90.4634V90.3995V90.3354V90.2711V90.2065V90.1418V90.0768V90.0117V89.9463V89.8807V89.815V89.749V89.6829V89.6165V89.55V89.4833V89.4163V89.3492V89.2819V89.2144V89.1468V89.0789V89.0109V88.9427V88.8743V88.8058V88.737V88.6681V88.599V88.5298V88.4604V88.3908V88.321V88.2511V88.181V88.1108V88.0404V87.9699V87.8992V87.8283V87.7573V87.6861V87.6148V87.5433V87.4717V87.4V87.3281V87.256V87.1839V87.1115V87.0391V86.9665V86.8938V86.8209V86.7479V86.6748V86.6015V86.5282V86.4547V86.381V86.3073V86.2334V86.1594V86.0853V86.0111V85.9368V85.8623V85.7878V85.7131V85.6383V85.5635V85.4885V85.4134V85.3382V85.2629V85.1875V85.112V85.0364V84.9608V84.885V84.8091V84.7332V84.6571V84.581V84.5048V84.4285V84.3521V84.2757V84.1991V84.1225V84.0458V83.9691V83.8922V83.8153V83.7384V83.6613V83.5842V83.507V83.4298V83.3525V83.2751V83.1977V83.1202V83.0427V82.9651V82.8875V82.8098V82.7321V82.6543V82.5764V82.4986V82.4206V82.3427V82.2647V82.1866V82.1086V82.0304V81.9523V81.8741V81.7959V81.7177V81.6394V81.5611V81.4828V81.4044V81.3261V81.2477V81.1693V81.0909V81.0124V80.934V80.8555V80.777V80.6985V80.6201V80.5416V80.4631V80.3846V80.306V80.2275V80.149V80.0705V79.992V79.9135V79.8351V79.7566V79.6781V79.5997V79.5212V79.4428V79.3644V79.286V79.2076V79.1293V79.051V78.9727V78.8944V78.8162V78.7379V78.6598V78.5816V78.5035V78.4254V78.3474V78.2693V78.1914V78.1134V78.0356V77.9577V77.8799V77.8022V77.7245V77.6468V77.5693V77.4917V77.4142V77.3368V77.2594V77.1821V77.1049V77.0277V76.9506V76.8735V76.7965V76.7196V76.6428V76.566V76.4893V76.4127V76.3361V76.2597V76.1833V76.107V76.0308V75.9546V75.8786V75.8026V75.7267V75.6509V75.5752V75.4996V75.4241V75.3487V75.2734V75.1982V75.1231V75.0481V74.9732V74.8984V74.8238V74.7492V74.6747V74.6004V74.5261V74.452V74.378V74.3041V74.2304V74.1567V74.0832V74.0098V73.9365V73.8634V73.7904V73.7175V73.6448V73.5722V73.4997V73.4273V73.3551V73.2831V73.2112V73.1394V73.0677V72.9963V72.9249V72.8537V72.7827V72.7118V72.6411V72.5705V72.5001V72.4298V72.3597V72.2898V72.22V72.1504V72.081V72.0117V71.9426V71.8737V71.8049V71.7363V71.6679V71.5997V71.5316V71.4638V71.3961V71.3286V71.2612V71.1941V71.1272V71.0604V70.9938V70.9274V70.8613V70.7953V70.7295V70.6639V70.5985V70.5333V70.4683V70.4036V70.339V70.2746V70.2105V70.1465V70.0828V70.0193V69.956V69.8929V69.83V69.7674V69.705V69.6428V69.5808V69.5191V69.4575V69.3962V69.3352V69.2744V69.2138V69.1534V69.0933V69.0334V68.9738V68.9144V68.8552V68.7963V68.7377V68.6793V68.6211V68.5632V68.5055V68.4481V68.391V68.3341V68.2775V68.2211V68.165V68.1091V68.0535V67.9982V67.9432V67.8884V67.8339V67.7797V67.7257V67.672V67.6186V67.5655V67.5127V67.4601V67.4078V67.3558V67.3041V67.2527V67.2016V67.1507V67.1002V67.0499V67C3 59.0523 9.05228 53 17 53H46.7347C49.5513 61.5265 57.28 68 67 68H81V97C81 104.948 74.9477 111 67 111H37H36.5858L36.2929 111.293L18 129.586V112ZM48.2399 94.7944C51.6136 92.2457 53.47 87.755 53.47 81.53C53.47 77.3796 52.4345 73.3993 50.2075 70.43C47.9544 67.4258 44.5318 65.53 39.97 65.53C35.6503 65.53 32.1261 67.4233 29.7039 70.4531C27.2961 73.4648 26 77.5639 26 82C26 87.1867 27.4444 91.1709 29.7634 93.9396C32.0829 96.709 35.2238 98.1954 38.477 98.4665L38.5184 98.47H38.56C38.5933 98.47 38.6261 98.4699 38.6584 98.4698C38.9033 98.4693 39.1238 98.4687 39.343 98.503C39.5913 98.5418 39.6926 98.6068 39.7279 98.6421L39.8636 98.7778L40.04 98.8537L40.0547 98.86C43.5376 100.358 47.2226 101.942 50.7903 102.962L51.6782 103.215L52.0016 102.35L53.8716 97.3503L54.2832 96.2498L53.1311 96.0194C51.354 95.664 49.71 95.3048 48.2399 94.7944ZM90.2709 33.5L91.4012 28.2039C91.546 27.7687 91.6948 27.2614 91.8447 26.7141C92.0623 27.297 92.3212 27.8431 92.6205 28.323L93.7324 33.5H90.2709ZM35.03 82C35.03 79.3458 35.5014 77.0292 36.3786 75.415C37.2371 73.8354 38.4279 73 39.97 73C41.5194 73 42.7498 73.8437 43.644 75.4288C44.5547 77.0431 45.06 79.3566 45.06 82C45.06 84.6434 44.5547 86.9569 43.644 88.5712C42.7498 90.1563 41.5194 91 39.97 91C38.3806 91 37.2049 90.2403 36.3714 88.7595C35.5058 87.2216 35.03 84.9177 35.03 82Z" fill="white" stroke="#A855F7" stroke-width="2"/>
<defs>
<filter id="filter0_f_393_1316" x="14" y="14" width="150" height="150" filterUnits="userSpaceOnUse" color-interpolation-filters="sRGB">
<feFlood flood-opacity="0" result="BackgroundImageFix"/>
<feBlend mode="normal" in="SourceGraphic" in2="BackgroundImageFix" result="shape"/>
<feGaussianBlur stdDeviation="5" result="effect1_foregroundBlur_393_1316"/>
</filter>
<filter id="filter1_f_393_1316" x="20" y="20" width="138" height="138" filterUnits="userSpaceOnUse" color-interpolation-filters="sRGB">
<feFlood flood-opacity="0" result="BackgroundImageFix"/>
<feBlend mode="normal" in="SourceGraphic" in2="BackgroundImageFix" result="shape"/>
<feGaussianBlur stdDeviation="2" result="effect1_foregroundBlur_393_1316"/>
</filter>
</defs>
</svg>
