<svg width="12" height="12" viewBox="0 0 12 12" fill="none" xmlns="http://www.w3.org/2000/svg">
<g clip-path="url(#clip0_393_1499)">
<path d="M9.75029 7.875V7.5C9.75029 7.40054 9.7898 7.30516 9.86013 7.23483C9.93045 7.16451 10.0258 7.125 10.1253 7.125C10.2247 7.125 10.3201 7.16451 10.3905 7.23483C10.4608 7.30516 10.5003 7.40054 10.5003 7.5V11.25H11.2503V7.5C11.25 7.20172 11.1314 6.91575 10.9205 6.70483C10.7095 6.49392 10.4236 6.3753 10.1253 6.375C9.93158 6.37623 9.74155 6.42807 9.57404 6.52537C9.42225 6.27966 9.18049 6.10294 8.90029 6.03289C8.62009 5.96284 8.32361 6.005 8.07404 6.15037C7.97317 5.98978 7.83324 5.85737 7.66733 5.76549C7.50142 5.67362 7.31494 5.62528 7.12529 5.625C6.99722 5.62632 6.87035 5.64979 6.75029 5.69438V3.75C6.75029 3.45163 6.63176 3.16548 6.42079 2.9545C6.20981 2.74353 5.92366 2.625 5.62529 2.625C5.32692 2.625 5.04077 2.74353 4.8298 2.9545C4.61882 3.16548 4.50029 3.45163 4.50029 3.75V7.91437L3.66217 7.34063V7.341C3.43316 7.17366 3.14939 7.09903 2.8677 7.13206C2.586 7.16508 2.32719 7.30333 2.1431 7.51909C1.95901 7.73486 1.86325 8.01221 1.87499 8.29559C1.88673 8.57897 2.00511 8.84745 2.20642 9.04725L4.62142 11.25L5.12654 10.6957L2.73479 8.514C2.7 8.47941 2.67241 8.43827 2.65362 8.39296C2.63482 8.34765 2.62519 8.29906 2.62529 8.25C2.62529 8.18036 2.64468 8.11209 2.6813 8.05285C2.71791 7.99361 2.7703 7.94573 2.83259 7.91459C2.89488 7.88345 2.96461 7.87026 3.03397 7.87651C3.10333 7.88277 3.16958 7.90822 3.22529 7.95L5.25029 9.33563V3.75C5.25029 3.65054 5.2898 3.55516 5.36013 3.48484C5.43045 3.41451 5.52583 3.375 5.62529 3.375C5.72475 3.375 5.82013 3.41451 5.89046 3.48484C5.96078 3.55516 6.00029 3.65054 6.00029 3.75V7.875H6.75029V6.75C6.75029 6.65054 6.7898 6.55516 6.86013 6.48483C6.93045 6.41451 7.02583 6.375 7.12529 6.375C7.22475 6.375 7.32013 6.41451 7.39046 6.48483C7.46078 6.55516 7.50029 6.65054 7.50029 6.75V7.875H8.25029V7.125C8.25029 7.02554 8.2898 6.93016 8.36013 6.85983C8.43045 6.78951 8.52583 6.75 8.62529 6.75C8.72475 6.75 8.82013 6.78951 8.89046 6.85983C8.96078 6.93016 9.00029 7.02554 9.00029 7.125V7.875H9.75029Z" fill="white"/>
<path d="M10.5 4.5H8.25V3.75H10.5V1.5H1.5V3.75H3V4.5H1.5C1.30115 4.4998 1.1105 4.42072 0.969889 4.28011C0.82928 4.1395 0.750199 3.94885 0.75 3.75V1.5C0.750199 1.30115 0.82928 1.1105 0.969889 0.969889C1.1105 0.82928 1.30115 0.750199 1.5 0.75H10.5C10.6989 0.750199 10.8895 0.82928 11.0301 0.969889C11.1707 1.1105 11.2498 1.30115 11.25 1.5V3.75C11.2498 3.94885 11.1707 4.1395 11.0301 4.28011C10.8895 4.42072 10.6989 4.4998 10.5 4.5Z" fill="white"/>
</g>
<defs>
<clipPath id="clip0_393_1499">
<rect width="12" height="12" fill="white"/>
</clipPath>
</defs>
</svg>
