<svg width="12" height="16" viewBox="0 0 12 16" fill="none" xmlns="http://www.w3.org/2000/svg">
<path d="M0 2V14C0 14.5304 0.210714 15.0391 0.585786 15.4142C0.960859 15.7893 1.46957 16 2 16H11.5C11.6326 16 11.7598 15.9473 11.8536 15.8536C11.9473 15.7598 12 15.6326 12 15.5C12 15.3674 11.9473 15.2402 11.8536 15.1464C11.7598 15.0527 11.6326 15 11.5 15H2C1.73478 15 1.48043 14.8946 1.29289 14.7071C1.10536 14.5196 1 14.2652 1 14H11C11.2652 14 11.5196 13.8946 11.7071 13.7071C11.8946 13.5196 12 13.2652 12 13V2C12 1.46957 11.7893 0.960859 11.4142 0.585786C11.0391 0.210714 10.5304 0 10 0H2C1.46957 0 0.960859 0.210714 0.585786 0.585786C0.210714 0.960859 0 1.46957 0 2ZM10 1C10.2652 1 10.5196 1.10536 10.7071 1.29289C10.8946 1.48043 11 1.73478 11 2V13H1V2C1 1.73478 1.10536 1.48043 1.29289 1.29289C1.48043 1.10536 1.73478 1 2 1H10ZM7.586 7.879C7.92763 7.36216 8.06519 6.73688 7.97199 6.12438C7.8788 5.51189 7.5615 4.95581 7.08161 4.56397C6.60172 4.17213 5.99342 3.97243 5.37466 4.0036C4.7559 4.03477 4.17076 4.29459 3.73267 4.73267C3.29459 5.17076 3.03477 5.7559 3.0036 6.37466C2.97243 6.99342 3.17213 7.60172 3.56397 8.08161C3.95581 8.5615 4.51189 8.8788 5.12438 8.97199C5.73688 9.06519 6.36216 8.92763 6.879 8.586L8.146 9.854C8.19249 9.90049 8.24768 9.93736 8.30842 9.96252C8.36916 9.98768 8.43426 10.0006 8.5 10.0006C8.56574 10.0006 8.63084 9.98768 8.69158 9.96252C8.75232 9.93736 8.80751 9.90049 8.854 9.854C8.90049 9.80751 8.93736 9.75232 8.96252 9.69158C8.98768 9.63084 9.00063 9.56574 9.00063 9.5C9.00063 9.43426 8.98768 9.36916 8.96252 9.30842C8.93736 9.24768 8.90049 9.19249 8.854 9.146L7.586 7.88V7.879ZM4 6.5C4 6.10218 4.15804 5.72064 4.43934 5.43934C4.72064 5.15804 5.10218 5 5.5 5C5.89782 5 6.27936 5.15804 6.56066 5.43934C6.84196 5.72064 7 6.10218 7 6.5C7 6.89782 6.84196 7.27936 6.56066 7.56066C6.27936 7.84196 5.89782 8 5.5 8C5.10218 8 4.72064 7.84196 4.43934 7.56066C4.15804 7.27936 4 6.89782 4 6.5Z" fill="white"/>
</svg>
