<svg width="6" height="8" viewBox="0 0 6 8" fill="none" xmlns="http://www.w3.org/2000/svg">
<path d="M3 0C1.34143 0 0 1.28608 0 2.87622C0 4.58962 1.89429 6.95223 2.67429 7.85208C2.84571 8.04931 3.15857 8.04931 3.33 7.85208C4.10571 6.95223 6 4.58962 6 2.87622C6 1.28608 4.65857 0 3 0ZM3 3.90344C2.40857 3.90344 1.92857 3.44325 1.92857 2.87622C1.92857 2.30919 2.40857 1.849 3 1.849C3.59143 1.849 4.07143 2.30919 4.07143 2.87622C4.07143 3.44325 3.59143 3.90344 3 3.90344Z" fill="white" fill-opacity="0.8"/>
</svg>
