<svg width="12" height="12" viewBox="0 0 12 12" fill="none" xmlns="http://www.w3.org/2000/svg">
<g clip-path="url(#clip0_393_1502)">
<path d="M5.25 8.22964C4.99 8.2008 4.73426 8.14164 4.488 8.05339C4.4955 7.87639 4.5 7.69189 4.5 7.49989V7.24714C4.7325 7.35814 4.98525 7.43539 5.25 7.47364V5.62489C5.25 5.32652 5.36853 5.04038 5.5795 4.8294C5.79048 4.61842 6.07663 4.49989 6.375 4.49989H8.22375C8.16394 4.08431 8.00531 3.68913 7.76118 3.34753C7.51705 3.00594 7.19454 2.72788 6.82072 2.53671C6.4469 2.34554 6.03268 2.24683 5.61281 2.24886C5.19295 2.25089 4.7797 2.35361 4.40775 2.54839C4.34842 2.30309 4.25072 2.0687 4.11825 1.85389C4.60445 1.61121 5.14206 1.48952 5.68538 1.49916C6.2287 1.5088 6.76165 1.64949 7.23894 1.90926C7.71623 2.16904 8.12373 2.54022 8.42681 2.99125C8.72989 3.44229 8.91958 3.95983 8.97975 4.49989H10.125C10.4234 4.49989 10.7095 4.61842 10.9205 4.8294C11.1315 5.04038 11.25 5.32652 11.25 5.62489V9.37489C11.25 9.67326 11.1315 9.95941 10.9205 10.1704C10.7095 10.3814 10.4234 10.4999 10.125 10.4999H6.375C6.07663 10.4999 5.79048 10.3814 5.5795 10.1704C5.36853 9.95941 5.25 9.67326 5.25 9.37489V8.22964ZM8.97975 5.24989C8.89453 6.01084 8.55321 6.72023 8.01177 7.26166C7.47034 7.8031 6.76095 8.14443 6 8.22964V9.37489C6 9.47435 6.03951 9.56973 6.10983 9.64006C6.18016 9.71038 6.27554 9.74989 6.375 9.74989H10.125C10.2245 9.74989 10.3198 9.71038 10.3902 9.64006C10.4605 9.56973 10.5 9.47435 10.5 9.37489V5.62489C10.5 5.52544 10.4605 5.43005 10.3902 5.35973C10.3198 5.2894 10.2245 5.24989 10.125 5.24989H8.97975ZM8.22375 5.24989H6.375C6.27554 5.24989 6.18016 5.2894 6.10983 5.35973C6.03951 5.43005 6 5.52544 6 5.62489V7.47364C6.56098 7.39256 7.08068 7.13217 7.48148 6.73137C7.88228 6.33058 8.14266 5.81088 8.22375 5.24989V5.24989ZM3.59625 5.67064C3.5175 5.38114 3.39 5.09089 3.171 4.86814C3.525 4.53289 3.75 3.99889 3.75 3.37489C3.75 2.85214 3.64425 2.49289 3.453 2.20564C3.36814 2.0821 3.27006 1.96817 3.1605 1.86589C3.11851 1.82535 3.07601 1.78535 3.033 1.74589C2.98725 1.70314 2.94525 1.66414 2.8905 1.60939C2.778 1.49689 2.76525 1.40689 2.76525 1.35964C2.76537 1.33338 2.76968 1.3073 2.778 1.28239C2.81229 1.20824 2.82143 1.12491 2.80401 1.04509C2.7866 0.965264 2.7436 0.893311 2.68155 0.840169C2.61949 0.787027 2.54178 0.755605 2.46023 0.750682C2.37868 0.745758 2.29775 0.767602 2.22975 0.812892L2.22825 0.813642L2.226 0.815142L2.21925 0.819642L2.19675 0.834642C2.08425 0.914885 1.97586 1.00074 1.872 1.09189C1.6845 1.25764 1.44 1.50289 1.26675 1.79539C1.11551 2.03789 0.994133 2.29777 0.90525 2.56939C0.81525 2.83864 0.75 3.13039 0.75 3.37489C0.75 3.99889 0.975 4.53214 1.329 4.86889C1.11 5.09089 0.9825 5.38114 0.90375 5.67139C0.75 6.23539 0.75 6.93289 0.75 7.47214V7.49989C0.75 9.04339 1.03875 9.95989 1.36575 10.5051C1.53 10.7781 1.701 10.9544 1.84425 11.0654C1.92058 11.1249 2.00365 11.1753 2.09175 11.2154C2.1427 11.234 2.19593 11.2456 2.25 11.2499C2.313 11.2499 2.40825 11.2154 2.40825 11.2154C2.49635 11.1753 2.57942 11.1249 2.65575 11.0654C2.79825 10.9544 2.97075 10.7781 3.13425 10.5051C3.46125 9.96064 3.75 9.04339 3.75 7.49989V7.47289C3.75 6.93289 3.75 6.23614 3.59625 5.67064ZM1.86525 5.39314C1.95 5.30764 2.06325 5.24989 2.25 5.24989C2.4375 5.24989 2.55 5.30839 2.63475 5.39239C2.72925 5.48764 2.811 5.64214 2.8725 5.86789C2.997 6.32614 3 6.92764 3 7.49989C3 8.95639 2.72625 9.72739 2.49075 10.1196C2.40075 10.2696 2.316 10.3664 2.25 10.4271C2.1557 10.3365 2.07465 10.2329 2.00925 10.1196C1.77375 9.72664 1.5 8.95639 1.5 7.49989C1.5 6.92764 1.503 6.32614 1.6275 5.86789C1.689 5.64289 1.77075 5.48764 1.86525 5.39239V5.39314ZM2.25 4.49989C1.96125 4.49989 1.5 4.17889 1.5 3.37489C1.5 3.24514 1.539 3.03964 1.617 2.80714C1.68808 2.58764 1.78608 2.3778 1.90875 2.18239C1.974 2.07214 2.05875 1.96489 2.15025 1.86664C2.202 1.95814 2.27025 2.05039 2.36025 2.14039C2.415 2.19514 2.48625 2.26114 2.547 2.31814L2.64 2.40514C2.71875 2.48164 2.7795 2.54839 2.82825 2.62264C2.91825 2.75689 3 2.96014 3 3.37489C3 4.17889 2.53875 4.49989 2.25 4.49989Z" fill="white"/>
</g>
<defs>
<clipPath id="clip0_393_1502">
<rect width="12" height="12" fill="white"/>
</clipPath>
</defs>
</svg>
