<svg width="12" height="12" viewBox="0 0 12 12" fill="none" xmlns="http://www.w3.org/2000/svg">
<path d="M10.2853 0H11.9996V1.71429H10.2853V0ZM10.2853 2.57143H11.9996V4.28571H10.2853V2.57143ZM7.71387 0H9.42815V1.71429H7.71387V0ZM7.71387 2.57143H9.42815V4.28571H7.71387V2.57143Z" fill="white"/>
<path d="M11.1429 6.00003V8.57146H0.857143V1.71432H6V0.857178H0.857143C0.629814 0.857178 0.411797 0.947484 0.251051 1.10823C0.0903058 1.26897 0 1.48699 0 1.71432V8.57146C0 8.79879 0.0903058 9.01681 0.251051 9.17755C0.411797 9.3383 0.629814 9.42861 0.857143 9.42861H4.28571V11.1429H2.57143V12H9.42857V11.1429H7.71429V9.42861H11.1429C11.3702 9.42861 11.5882 9.3383 11.7489 9.17755C11.9097 9.01681 12 8.79879 12 8.57146V6.00003H11.1429ZM6.85714 11.1429H5.14286V9.42861H6.85714V11.1429Z" fill="white"/>
</svg>
