<svg width="15" height="25" viewBox="0 0 15 25" fill="none" xmlns="http://www.w3.org/2000/svg">
<path d="M7.5 5.30087C7.69891 5.30087 7.88968 5.3801 8.03033 5.52115C8.17098 5.66219 8.25 5.85349 8.25 6.05295V9.06131C8.25 9.26078 8.17098 9.45207 8.03033 9.59312C7.88968 9.73416 7.69891 9.8134 7.5 9.8134C7.30109 9.8134 7.11032 9.73416 6.96967 9.59312C6.82902 9.45207 6.75 9.26078 6.75 9.06131V6.05295C6.75 5.85349 6.82902 5.66219 6.96967 5.52115C7.11032 5.3801 7.30109 5.30086 7.5 5.30087ZM13.5 17.3343C13.5 18.93 12.8679 20.4604 11.7426 21.5888C10.6174 22.7171 9.0913 23.351 7.5 23.351C5.9087 23.351 4.38258 22.7171 3.25736 21.5888C2.13214 20.4604 1.5 18.93 1.5 17.3343V8.30922C1.5 6.71349 2.13214 5.18312 3.25736 4.05476C4.38258 2.92641 5.9087 2.29251 7.5 2.29251C9.0913 2.29251 10.6174 2.92641 11.7426 4.05476C12.8679 5.18312 13.5 6.71349 13.5 8.30922V17.3343ZM7.5 0.78833C5.51088 0.78833 3.60322 1.58071 2.1967 2.99115C0.790176 4.40159 0 6.31456 0 8.30922V17.3343C0 19.329 0.790176 21.2419 2.1967 22.6524C3.60322 24.0628 5.51088 24.8552 7.5 24.8552C9.48912 24.8552 11.3968 24.0628 12.8033 22.6524C14.2098 21.2419 15 19.329 15 17.3343V8.30922C15 6.31456 14.2098 4.40159 12.8033 2.99115C11.3968 1.58071 9.48912 0.78833 7.5 0.78833V0.78833Z" fill="white"/>
</svg>
